<svg xmlns="http://www.w3.org/2000/svg" width="500" height="560" viewBox="0 0 500 560"><style type="text/css">.st0{fill:#5B091E;} .st1{fill:#FFBE47;} .st2{fill:none;stroke:#FFBE47;stroke-width:14;stroke-linecap:square;stroke-miterlimit:10;} .st3{fill:none;stroke:#5B091E;stroke-width:19;stroke-miterlimit:10;} .st4{fill:none;stroke:#FFBE47;stroke-width:4.8154;stroke-linecap:square;stroke-miterlimit:10;} .st5{fill:#FFBE47;stroke:#5B091E;stroke-width:20;stroke-miterlimit:10;} .st6{fill:none;stroke:#5B091E;stroke-width:24;stroke-miterlimit:10;} .st7{fill:none;stroke:#FFFFFF;stroke-width:22;stroke-linecap:square;stroke-miterlimit:10;}</style><path class="st1" d="M87.87 272.08c3.11-12.53 12.02-23.11 13.64-36.26 1.58-12.74-4.02-24.84-4.62-37.43-1.72-35.95 35.59-67.19 69.31-68.76 2.62-.12 5.46-.17 7.55-1.75 1.85-1.4 2.72-3.7 3.61-5.84 8.51-20.46 27.18-36.39 48.72-41.58 21.54-5.19 45.42.5 62.3 14.85 4.28 3.63 8.55 7.99 14.11 8.7 3.14.4 6.29-.43 9.37-1.18 20.65-4.98 43.75-5.58 61.75 5.69 17.67 11.07 27.25 31.63 31.67 52.01.84 3.86 1.66 8 4.45 10.79 2.02 2.01 4.78 3.02 7.4 4.13 55.12 23.45 56.77 104.99 1.69 130.14-3.53 1.61-7.41 3.11-9.53 6.36-1.9 2.91-1.95 6.59-2.21 10.05-1.89 25.76-18.57 49-42.29 59.14-18.2 7.79-37.29 6.46-55.67.25-5.46-1.84-12.05-6.59-17.87-6.05-3.32.31-6.12 2.47-8.86 4.37-32.69 22.59-79.52 12.69-100.44-20.97-1.65-2.66-3.33-5.61-6.21-6.83-2.64-1.12-5.65-.5-8.49-.06-27.15 4.2-54.16-11.52-68.82-33.81-7.44-11.3-11.96-24.68-11.65-38.29.09-2.65.48-5.2 1.09-7.67zm317.25 22.27c23.23-6.6 39.16-28.67 39.63-52.69.47-24.14-15.32-46.89-39.2-53.96-10.75-3.19-14.76-7.11-14.76-19.47.01-41.67-45.28-67.83-82.15-47.99-9.82 5.29-15.23 4.28-22.06-4.66-12.69-16.62-30.4-23.74-51.3-20.7-22.13 3.22-37.74 15.69-44.83 36.8-3.6 10.74-7.59 14.67-20.03 13.81-40.15-2.76-69.22 40.45-52.81 77.85 4.16 9.47 3.67 15.74-2.88 23.82-14.77 18.24-15.17 44.23-2.46 64.03 12.82 19.98 36.08 30.24 59.13 24.26 11.1-2.88 16.19-.44 21.27 9.95 16.8 34.35 59.92 41.93 87.63 15.65 7.66-7.26 12.92-8.21 21.59-1.39 18.22 14.33 38.82 16.13 59.45 5.64 21.05-10.7 30.93-28.78 30.94-53.2-2.9-10.33 2.41-14.79 12.84-17.75zm-283.73 190.71c-11.09-2.17-18.7-14.24-15.89-25.67 2.29-9.28 9.41-14.32 18.58-14.65 9.17-.32 16.32 4.31 19.64 13.29 4.24 11.47-3.96 25.52-16.17 27.19-2.14.3-4.2.23-6.16-.16zm2.99-7.6c7.07.51 13.65-5.77 12.99-12.67-.7-7.32-4.82-12.02-12.61-11.97-7.76.05-11.57 4.66-12.5 11.86.57 7.79 4.52 12.23 12.12 12.78zm24.36-64.69c-.11-16.04 13.04-29.17 29.16-29.11 15.65.06 28.59 12.7 29 28.32.42 16-12.53 29.25-28.71 29.37-16.51.13-29.34-12.32-29.45-28.58zm10.7.49c.27 10.32 9.1 18.68 19.19 18.17 9.75-.5 17.54-8.92 17.47-18.88-.08-10.62-8.26-18.73-18.68-18.5-10.43.22-18.26 8.58-17.98 19.21z" id="xgTSEU_1_"/><path class="st3" d="M256.92 291.71l-35.51-37.11 35.51 37.11 67.08-95.42z"/></svg>