<svg xmlns="http://www.w3.org/2000/svg" width="500" height="560" viewBox="0 0 500 560"><style type="text/css">.st0{fill:#5B091E;} .st1{fill:#FFBE47;} .st2{fill:none;stroke:#FFBE47;stroke-width:14;stroke-linecap:square;stroke-miterlimit:10;} .st3{fill:none;stroke:#5B091E;stroke-width:19;stroke-miterlimit:10;} .st4{fill:none;stroke:#FFBE47;stroke-width:4.8154;stroke-linecap:square;stroke-miterlimit:10;} .st5{fill:#FFBE47;stroke:#5B091E;stroke-width:20;stroke-miterlimit:10;} .st6{fill:none;stroke:#5B091E;stroke-width:24;stroke-miterlimit:10;} .st7{fill:none;stroke:#FFFFFF;stroke-width:22;stroke-linecap:square;stroke-miterlimit:10;}</style><path class="st0" d="M269.74 101c44.97 6.02 84.37 24.2 115.97 56.7 61.58 63.33 58.04 154.5-.01 213.4-7.33 7.44-15.46 14.19-23.76 20.54-4.51 3.45-5.81 6.51-4.48 12.14 4.46 18.99 14.06 35.37 24.56 51.4 1.91 2.91 3.51 6.01 5.26 9.02h-25.94c-4.85-1.19-9.69-2.41-14.54-3.57-21.54-5.11-39.91-16.09-55.95-31.01-3.38-3.15-6.22-3.74-10.59-2.98-44.99 7.82-88.75 3.77-130.25-15.91-50.43-23.9-85.4-61.21-98.05-116.99-1.21-5.32-2.35-10.66-3.52-15.99v-25.94c1.82-8.29 3.28-16.67 5.51-24.84 11.6-42.39 37.81-73.72 74.4-96.88 29.71-18.81 62.4-28.54 97.42-30.75 1.44-.09 2.84-1.02 4.25-1.55h19.46c6.74 1.08 13.48 2.31 20.26 3.21zm74.26 314.83c-.94-2.51-1.33-5.23-2.18-7.78-4.21-12.74-2.11-21.39 10.51-30.04 31.25-21.43 52.39-51.04 59.34-89.04 9.01-49.21-7.11-90.57-42.64-124.33-36.78-34.93-81.98-50.76-132.01-49.45-63.32 1.66-116.72 25.36-151.78 80.56-32.88 51.75-24.69 118.61 18.64 162.16 49.05 49.29 108.68 64.07 175.84 51.85 9.23-1.68 15.16-.6 21.57 6.52 12.12 13.46 27.63 22.15 45.05 27.24 2.72.79 5.54 1.2 8.99 1.93-4.09-10.62-7.78-20.09-11.33-29.62z" id="abGGZA.tif_1_"/><path class="st0" d="M158 199.14h28.42v28.42h-28.42zm0 55.65h28.42v28.42h-28.42zm0 55.65h28.42v28.42h-28.42z"/><path class="st1" d="M201.02 196.77h119.98v32.36h-119.98zm0 56.05h119.98v32.36h-119.98zm0 56.04h119.98v32.36h-119.98z"/><path class="st4" d="M171.61 331.38l-9.22-9.63 9.22 9.63 17.41-24.76z"/></svg>