<svg xmlns="http://www.w3.org/2000/svg" width="288" height="288" viewBox="0 0 288 288"><style type="text/css">.st0{fill:#FFFFFF;} .st1{fill:none;stroke:#FFFFFF;stroke-width:15.0305;stroke-linecap:round;stroke-linejoin:round;stroke-miterlimit:10;}</style><path id="Facebook_4_" class="st0" d="M124.235 97.942v20.542h-15.057v25.132h15.057v68.947h30.92v-68.947h20.749s1.943-12.049 2.886-25.223h-23.518v-17.179c0-2.568 3.372-6.022 6.706-6.022h16.844v-26.154h-22.905c-32.449-.006-31.682 25.149-31.682 28.904z"/><path class="st1" d="M214.204 38.906h-140.408c-19.269 0-34.89 15.621-34.89 34.89v140.408c0 19.269 15.621 34.89 34.89 34.89h140.408c19.269 0 34.89-15.621 34.89-34.89v-140.408c0-19.269-15.621-34.89-34.89-34.89z"/></svg>