<svg xmlns="http://www.w3.org/2000/svg" width="288" height="288" viewBox="0 0 288 288"><style type="text/css">.st0{fill:#5A081E;} .st1{fill:none;stroke:#5A081E;stroke-width:7.741;stroke-linecap:round;stroke-linejoin:round;stroke-miterlimit:10;} .st2{fill:none;stroke:#5A081E;stroke-width:7.7404;stroke-linecap:round;stroke-linejoin:round;stroke-miterlimit:10;}</style><path class="st0" d="M161.1 138.2l.1 1.2c0 11.4-9.2 20.6-20.6 20.6-11.4 0-20.6-9.2-20.6-20.6 0-.4 0-.8.1-1.2h-20.8v43.4c0 1.8 1.4 3.2 3.2 3.2h76.1c1.8 0 3.2-1.4 3.2-3.2v-43.4h-20.7zm17.5-35.9h-76.1c-1.8 0-3.2 1.4-3.2 3.2v27.9h21.6c2.6-8.4 10.4-14.5 19.7-14.5 9.2 0 17.1 6.1 19.7 14.5h21.6v-27.9c-.1-1.7-1.5-3.2-3.3-3.2zm-1.7 15.6c0 1.8-1.4 3.2-3.2 3.2h-7.1c-1.8 0-3.2-1.4-3.2-3.2v-7.1c0-1.8 1.4-3.2 3.2-3.2h7.1c1.8 0 3.2 1.4 3.2 3.2v7.1z"/><path class="st2" d="M200.9 46.8h-117.5c-24.7 0-44.8 20.1-44.8 44.8v117.5c0 24.7 20.1 44.8 44.8 44.8h117.5c24.7 0 44.8-20.1 44.8-44.8v-117.5c0-24.7-20.1-44.8-44.8-44.8z"/></svg>