<svg xmlns="http://www.w3.org/2000/svg" width="288" height="288" viewBox="0 0 288 288"><style type="text/css">.st0{fill:#FFFFFF;} .st1{fill:none;stroke:#FFFFFF;stroke-width:15.0305;stroke-linecap:round;stroke-linejoin:round;stroke-miterlimit:10;}</style><path class="st0" d="M141.1 84.6c-36.638 0-55.106 26.262-55.106 48.162 0 13.259 5.019 25.058 15.787 29.455 1.767.721 3.349.023 3.86-1.932.355-1.352 1.202-4.766 1.576-6.186.514-1.934.315-2.613-1.108-4.298-3.107-3.661-5.09-8.405-5.09-15.119 0-19.485 14.582-36.925 37.96-36.925 20.705 0 32.084 12.651 32.084 29.546 0 22.229-9.845 40.992-24.447 40.992-8.068 0-14.107-6.672-12.17-14.852 2.318-9.768 6.807-20.306 6.807-27.356 0-6.311-3.387-11.577-10.397-11.577-8.243 0-14.871 8.533-14.871 19.957 0 7.277 2.457 12.202 2.457 12.202s-8.439 35.749-9.913 42.009c-2.948 12.469-.446 27.756-.23 29.301.122.912 1.295 1.128 1.829.437.761-.991 10.582-13.117 13.917-25.228.948-3.431 5.425-21.195 5.425-21.195 2.681 5.11 10.509 9.612 18.839 9.612 24.782 0 41.597-22.595 41.597-52.837 0-22.87-19.371-44.168-48.806-44.168z"/><path class="st1" d="M214.204 38.906h-140.408c-19.269 0-34.89 15.621-34.89 34.89v140.408c0 19.269 15.621 34.89 34.89 34.89h140.408c19.269 0 34.89-15.621 34.89-34.89v-140.408c0-19.269-15.621-34.89-34.89-34.89z"/></svg>