<svg xmlns="http://www.w3.org/2000/svg" width="288" height="288" viewBox="0 0 288 288"><style type="text/css">.st0{fill:#FFFFFF;} .st1{fill:none;stroke:#FFFFFF;stroke-width:7.741;stroke-linecap:round;stroke-linejoin:round;stroke-miterlimit:10;} .st2{fill:none;stroke:#FFFFFF;stroke-width:7.7404;stroke-linecap:round;stroke-linejoin:round;stroke-miterlimit:10;}</style><path id="Facebook_4_" class="st0" d="M137 115.8v13.7h-10v16.7h10v45.8h20.6v-45.9h13.8s1.3-8 1.9-16.8h-15.6v-11.4c0-1.7 2.2-4 4.5-4h11.2v-17.4h-15.2c-21.8 0-21.2 16.8-21.2 19.3z"/><path class="st1" d="M208.8 45.9h-117.4c-24.7 0-44.8 20.1-44.8 44.8v117.5c0 24.7 20.1 44.8 44.8 44.8h117.5c24.7 0 44.8-20.1 44.8-44.8v-117.5c-.1-24.8-20.1-44.8-44.9-44.8z"/></svg>