<svg xmlns="http://www.w3.org/2000/svg" width="288" height="288" viewBox="0 0 288 288"><style type="text/css">.st0{fill:#5A081E;} .st1{fill:none;stroke:#5A081E;stroke-width:7.741;stroke-linecap:round;stroke-linejoin:round;stroke-miterlimit:10;} .st2{fill:none;stroke:#5A081E;stroke-width:7.7404;stroke-linecap:round;stroke-linejoin:round;stroke-miterlimit:10;}</style><path class="st0" d="M147.8 104.8c-24.4 0-36.7 17.5-36.7 32 0 8.8 3.3 16.7 10.5 19.6 1.2.5 2.2 0 2.6-1.3l1-4.1c.3-1.3.2-1.7-.7-2.9-2.1-2.4-3.4-5.6-3.4-10.1 0-13 9.7-24.6 25.3-24.6 13.8 0 21.3 8.4 21.3 19.7 0 14.8-6.5 27.3-16.3 27.3-5.4 0-9.4-4.4-8.1-9.9 1.5-6.5 4.5-13.5 4.5-18.2 0-4.2-2.3-7.7-6.9-7.7-5.5 0-9.9 5.7-9.9 13.3 0 4.8 1.6 8.1 1.6 8.1s-5.6 23.8-6.6 27.9c-2 8.3-.3 18.5-.2 19.5.1.6.9.8 1.2.3.5-.7 7-8.7 9.3-16.8.6-2.3 3.6-14.1 3.6-14.1 1.8 3.4 7 6.4 12.5 6.4 16.5 0 27.7-15 27.7-35.2.2-15.1-12.7-29.2-32.3-29.2z"/><path class="st2" d="M202.7 40.5h-117.4c-24.7 0-44.8 20.1-44.8 44.8v117.5c0 24.7 20.1 44.8 44.8 44.8h117.5c24.7 0 44.8-20.1 44.8-44.8v-117.5c-.1-24.8-20.1-44.8-44.9-44.8z"/></svg>