<svg xmlns="http://www.w3.org/2000/svg" width="288" height="288" viewBox="0 0 288 288"><style type="text/css">.st0{fill:#5A081E;} .st1{fill:none;stroke:#5A081E;stroke-width:15.0305;stroke-linecap:round;stroke-linejoin:round;stroke-miterlimit:10;}</style><path class="st1" d="M214.204 38.906h-140.408c-19.269 0-34.89 15.621-34.89 34.89v140.408c0 19.269 15.621 34.89 34.89 34.89h140.408c19.269 0 34.89-15.621 34.89-34.89v-140.408c0-19.269-15.621-34.89-34.89-34.89z"/><path class="st0" d="M174.827 137.984c.037.619.094 1.233.094 1.86 0 17.076-13.844 30.921-30.923 30.921-17.076 0-30.921-13.844-30.921-30.921 0-.628.057-1.241.094-1.86h-31.151v65.258c0 2.639 2.142 4.78 4.78 4.78h114.4c2.639 0 4.78-2.142 4.78-4.783v-65.255h-31.153zm26.373-53.922h-114.4c-2.639 0-4.78 2.142-4.78 4.78v41.87h32.432c3.894-12.62 15.647-21.791 29.546-21.791 13.901 0 25.654 9.172 29.548 21.791h32.434v-41.87c0-2.638-2.142-4.78-4.78-4.78zm-2.554 23.314c0 2.639-2.139 4.778-4.777 4.778h-10.68c-2.642 0-4.781-2.139-4.781-4.778v-10.68c0-2.642 2.139-4.78 4.781-4.78h10.68c2.639 0 4.777 2.139 4.777 4.78v10.68z"/></svg>