<?xml version="1.0" encoding="utf-8"?>
<!-- Generator: Adobe Illustrator 19.1.0, SVG Export Plug-In . SVG Version: 6.00 Build 0)  -->
<svg version="1.1" id="Layer_1" xmlns="http://www.w3.org/2000/svg" xmlns:xlink="http://www.w3.org/1999/xlink" x="0px" y="0px"
	 width="288px" height="288px" viewBox="0 0 288 288" style="enable-background:new 0 0 288 288;" xml:space="preserve">
<style type="text/css">
	.st0{fill:#FFFFFF;}
	.st1{fill:none;stroke:#FFFFFF;stroke-width:7.741;stroke-linecap:round;stroke-linejoin:round;stroke-miterlimit:10;}
	.st2{fill:none;stroke:#FFFFFF;stroke-width:7.7404;stroke-linecap:round;stroke-linejoin:round;stroke-miterlimit:10;}
</style>
<g>
	<path class="st0" d="M195.931,129.711c-0.308-9.511-5.645-16.125-14.676-17.416c-9.031-1.291-57.407-1.291-72.566,0.323
		s-14.674,16.609-14.674,16.609s-1.128,19.351,0.323,35.799c1.451,16.448,16.288,15.481,16.288,15.481
		c8.385,0.968,62.728,0.644,70.093-0.161c7.364-0.805,12.794-3.71,14.729-13.546C197.383,156.965,196.255,139.709,195.931,129.711z
		 M137.738,161.731v-30.994l24.023,15.496L137.738,161.731z"/>
	<path class="st2" d="M202.735,46.83H85.265c-24.738,0-44.793,20.054-44.793,44.793v117.471c0,24.738,20.054,44.793,44.793,44.793
		h117.471c24.738,0,44.793-20.054,44.793-44.793V91.623C247.528,66.884,227.474,46.83,202.735,46.83z"/>
</g>
</svg>
