<svg xmlns="http://www.w3.org/2000/svg" width="288" height="288" viewBox="0 0 288 288"><style type="text/css">.st0{fill:#5A081E;} .st1{fill:none;stroke:#5A081E;stroke-width:15.0305;stroke-linecap:round;stroke-linejoin:round;stroke-miterlimit:10;}</style><path class="st1" d="M214.204 38.906h-140.408c-19.269 0-34.89 15.621-34.89 34.89v140.408c0 19.269 15.621 34.89 34.89 34.89h140.408c19.269 0 34.89-15.621 34.89-34.89v-140.408c0-19.269-15.621-34.89-34.89-34.89z"/><path class="st0" d="M212.626 121.864c-.413-12.742-7.562-21.603-19.661-23.332-12.099-1.729-76.908-1.729-97.217.433l-19.659 22.251s-1.511 25.925.433 47.961l21.821 20.74c11.233 1.296 84.037.863 93.903-.215s17.14-4.97 19.732-18.147 1.081-36.296.648-49.691zm-77.961 42.897v-41.523l32.183 20.76-32.183 20.763z"/></svg>