<svg xmlns="http://www.w3.org/2000/svg" width="288" height="288" viewBox="0 0 288 288"><style type="text/css">.st0{fill:#5A081E;} .st1{fill:none;stroke:#5A081E;stroke-width:7.741;stroke-linecap:round;stroke-linejoin:round;stroke-miterlimit:10;} .st2{fill:none;stroke:#5A081E;stroke-width:7.7404;stroke-linecap:round;stroke-linejoin:round;stroke-miterlimit:10;}</style><path class="st0" d="M195.9 129.7c-.3-9.5-5.6-16.1-14.7-17.4-9-1.3-57.4-1.3-72.6.3l-14.6 16.6s-1.1 19.4.3 35.8c1.5 16.4 16.3 15.5 16.3 15.5 8.4 1 62.7.6 70.1-.2 7.4-.8 12.8-3.7 14.7-13.5 2-9.8.9-27.1.5-37.1zm-58.2 32v-31l24 15.5-24 15.5z"/><path class="st2" d="M202.7 46.8h-117.4c-24.7 0-44.8 20.1-44.8 44.8v117.5c0 24.7 20.1 44.8 44.8 44.8h117.5c24.7 0 44.8-20.1 44.8-44.8v-117.5c-.1-24.7-20.1-44.8-44.9-44.8z"/></svg>