<svg xmlns="http://www.w3.org/2000/svg" width="231.12" height="60" viewBox="0 0 231.12 60"><style type="text/css">.st0{fill:#5B091E;}</style><path class="st0" d="M53.635 22.046v2.872c-1.795 1.038-5.105 2.453-9.931 4.247-2.154 5.384-5.563 10.389-10.229 15.015-4.667 4.627-8.934 6.939-12.802 6.939-2.194 0-3.969-.777-5.324-2.333-1.356-1.555-2.034-3.698-2.034-6.431 0-2.731.917-6.021 2.752-9.871 1.834-3.848 4.248-7.457 7.239-10.828 2.991-3.37 6.042-5.852 9.153-7.448 1.276-.837 3.27-1.256 5.982-1.256 2.034 0 3.699.788 4.996 2.363 1.295 1.576 1.944 3.43 1.944 5.563 0 2.134-.16 3.739-.479 4.815 3.029-.994 5.941-2.211 8.733-3.647zm-22.972 20.52c3.908-3.868 6.641-7.897 8.196-12.084-.997.2-2.273.299-3.829.299-6.7 0-10.489-1.496-11.366-4.487-3.35 4.667-5.025 9.252-5.025 13.759 0 1.794.428 3.23 1.287 4.307.857 1.077 2.124 1.615 3.798 1.615 2.353 0 4.666-1.137 6.939-3.409zm-.777-22.613c-1.316 1.356-1.974 2.662-1.974 3.918 0 1.256.637 2.253 1.914 2.991 1.276.739 2.881 1.107 4.816 1.107 1.934 0 3.619-.18 5.055-.539.239-1.196.359-2.353.359-3.47 0-3.948-1.695-5.922-5.084-5.922-1.557 0-3.253.639-5.086 1.915zm39.003 24.288l1.256.957c-.877 1.755-2.084 3.23-3.619 4.427-1.536 1.196-2.922 1.795-4.158 1.795-1.236 0-2.213-.359-2.931-1.077s-1.077-1.615-1.077-2.692c0-1.076.688-2.961 2.064-5.652 1.375-2.692 2.063-4.676 2.063-5.953 0-.558-.23-1.066-.688-1.525-.459-.458-1.007-.688-1.645-.688-2.034 0-4.088 1.546-6.162 4.636-2.074 3.092-4.388 7.548-6.939 13.371l-3.589-1.257c.757-4.626 1.844-9.143 3.26-13.55 1.416-4.406 2.722-7.567 3.918-9.482l2.453.778c-1.117 2.832-2.533 7.717-4.247 14.656 5.503-9.411 10.568-14.118 15.195-14.118.996 0 1.825.339 2.482 1.017.658.679.987 1.476.987 2.393 0 .918-.12 1.745-.359 2.482-.239.738-.987 2.453-2.244 5.146-1.256 2.691-1.884 4.377-1.884 5.055 0 .679.199 1.207.598 1.585.398.38.778.568 1.137.568s.658-.06.897-.18c.239-.119.508-.299.808-.538l.808-.658c.239-.199.528-.468.867-.808.339-.339.589-.569.749-.688zm18.808.179l1.376 1.076c-1.237 1.716-2.932 3.141-5.085 4.277-2.154 1.137-4.248 1.705-6.281 1.705-2.034 0-3.67-.599-4.906-1.795-1.236-1.196-1.854-2.771-1.854-4.726 0-3.669 1.944-7.278 5.833-10.828 3.888-3.549 7.826-5.324 11.815-5.324 2.632 0 3.948 1.038 3.948 3.111 0 2.153-1.386 4.327-4.158 6.521-2.772 2.193-6.67 4.188-11.695 5.982.359.917.917 1.636 1.675 2.153.757.519 1.535.777 2.333.777 1.714.002 4.047-.974 6.999-2.929zm-11.307-1.795c3.23-1.116 6.002-2.513 8.315-4.188 2.312-1.676 3.47-3.21 3.47-4.606 0-.518-.2-.977-.598-1.376-.399-.398-.858-.599-1.376-.599-1.875 0-3.899 1.167-6.072 3.5-2.174 2.334-3.42 4.757-3.739 7.269zm40.291 4.585h-6.08c.172-5.95.344-10.045.518-12.288l-12.029 1.423-1.552-6.984c3.363-.689 8.062-1.249 14.099-1.682.689-6.897 1.293-11.726 1.811-14.487l6.985 1.552-1.423 11.771h12.546v6.079l-13.452 1.553-1.423 13.063zm58.411-25.164v2.872c-1.795 1.038-5.105 2.453-9.93 4.247-2.154 5.384-5.564 10.389-10.23 15.015-4.666 4.627-8.934 6.939-12.801 6.939-2.195 0-3.971-.777-5.324-2.333-1.357-1.555-2.035-3.698-2.035-6.431 0-2.731.917-6.021 2.752-9.871 1.834-3.848 4.248-7.457 7.238-10.828 2.992-3.37 6.043-5.852 9.152-7.448 1.277-.837 3.271-1.256 5.982-1.256 2.035 0 3.699.788 4.996 2.363 1.295 1.576 1.943 3.43 1.943 5.563 0 2.134-.158 3.739-.479 4.815 3.033-.994 5.945-2.211 8.736-3.647zm-22.971 20.52c3.908-3.868 6.639-7.897 8.195-12.084-.998.2-2.273.299-3.828.299-6.701 0-10.49-1.496-11.367-4.487-3.35 4.667-5.025 9.252-5.025 13.759 0 1.794.428 3.23 1.287 4.307.857 1.077 2.123 1.615 3.799 1.615 2.351 0 4.666-1.137 6.939-3.409zm-.779-22.613c-1.314 1.356-1.973 2.662-1.973 3.918 0 1.256.637 2.253 1.914 2.991 1.275.739 2.881 1.107 4.814 1.107 1.936 0 3.619-.18 5.057-.539.238-1.196.357-2.353.357-3.47 0-3.948-1.695-5.922-5.084-5.922-1.554 0-3.251.639-5.085 1.915zm39.004 24.288l1.256.957c-.878 1.755-2.084 3.23-3.619 4.427-1.536 1.196-2.922 1.795-4.157 1.795-1.237 0-2.214-.359-2.932-1.077s-1.077-1.615-1.077-2.692c0-1.076.688-2.961 2.064-5.652 1.376-2.692 2.063-4.676 2.063-5.953 0-.558-.229-1.066-.688-1.525-.459-.458-1.008-.688-1.646-.688-2.034 0-4.089 1.546-6.162 4.636-2.073 3.092-4.387 7.548-6.938 13.371l-3.59-1.257c.757-4.626 1.845-9.143 3.261-13.55 1.415-4.406 2.722-7.567 3.918-9.482l2.453.778c-1.117 2.832-2.533 7.717-4.248 14.656 5.504-9.411 10.568-14.118 15.195-14.118.996 0 1.824.339 2.482 1.017.658.679.987 1.476.987 2.393 0 .918-.12 1.745-.359 2.482-.239.738-.986 2.453-2.243 5.146-1.256 2.691-1.885 4.377-1.885 5.055 0 .679.199 1.207.599 1.585.398.38.777.568 1.137.568s.658-.06.897-.18c.239-.119.509-.299.808-.538l.808-.658c.239-.199.528-.468.867-.808.339-.339.588-.569.749-.688zm18.807.179l1.376 1.076c-1.236 1.716-2.932 3.141-5.085 4.277s-4.247 1.705-6.281 1.705-3.67-.599-4.905-1.795c-1.237-1.196-1.854-2.771-1.854-4.726 0-3.669 1.943-7.278 5.832-10.828 3.889-3.549 7.827-5.324 11.815-5.324 2.632 0 3.948 1.038 3.948 3.111 0 2.153-1.387 4.327-4.158 6.521-2.772 2.193-6.67 4.188-11.695 5.982.359.917.917 1.636 1.676 2.153.757.519 1.534.777 2.333.777 1.713.002 4.046-.974 6.998-2.929zm-11.306-1.795c3.23-1.116 6.002-2.513 8.315-4.188 2.312-1.676 3.47-3.21 3.47-4.606 0-.518-.2-.977-.599-1.376-.398-.398-.857-.599-1.376-.599-1.875 0-3.898 1.167-6.071 3.5-2.175 2.334-3.421 4.757-3.739 7.269z"/></svg>